<svg xmlns="http://www.w3.org/2000/svg" width="414.524" height="226.667" viewBox="0 0 414.524 226.667">
  <g id="background" transform="translate(4 -77)">
    <path id="Path_52" data-name="Path 52" d="M0,0H414.491V218.565H0Z" transform="translate(-4 77)" fill="#434779"/>
    <path id="Path_10" data-name="Path 10" d="M1647.826,401H1483.661s85.035,18.626,70.469,45.79-151.567,39.762-50,63.382S1647.826,401,1647.826,401Z" transform="translate(-1319.925 -324)" fill="#c66cfa"/>
    <path id="Path_11" data-name="Path 11" d="M1056.033,609.829l120.676.234s-43.015-15.9-34.747-40.706c13.045-25.624,106.457-3.261,65.317-52.834C1164.79,472.218,1056.033,609.829,1056.033,609.829Z" transform="translate(-823.482 -359.484)" fill="#93a1ff"/>
    <path id="Path_13" data-name="Path 13" d="M1802.4,1203.677l-104.691-.424-14.8.424s-10.177,11.771-26.831,27.925-23.013,25.1-23.013,25.1l227.695.385s.027-8.973,0-20.517c0-1.6.007-3.293,0-5.007-.012-3.042.012-6.219-.021-9.384-.034-3.211.036-6.479.006-9.66-.006-.609.022-1.281,0-1.941C1826.227,1210.88,1802.373,1203.657,1802.4,1203.677Z" transform="translate(-1450.248 -953.422)" fill="#93a1ff"/>
    <path id="Path_9" data-name="Path 9" d="M766,628.316c47.831-38.987,96.8-22.054,109.624,10.239s-86.277-5.907-58.684,42.532,53.313,48.435,62.132,54.038S766,734.645,766,734.645Z" transform="translate(-770 -483.576)" fill="#ffb95e"/>
    <path id="Path_12" data-name="Path 12" d="M766,1160.961s33.221-30.264,117.867,2.536,296.286,50.41,296.286,50.41L766,1213.921Z" transform="translate(-770 -910.254)" fill="#ffb95e"/>
  </g>
</svg>
