<svg xmlns="http://www.w3.org/2000/svg" width="1924" height="1913.125" viewBox="0 0 1924 1913.125">
  <g id="botton_background" data-name="botton background" transform="translate(0 -3385)">
    <rect id="Rectangle_11" data-name="Rectangle 11" width="1920" height="1913" transform="translate(0 3385)" fill="#85f093"/>
    <g id="Darkblue_wave" data-name="Darkblue wave" transform="translate(0 5138)" fill="#434779">
      <path d="M 1923.500366210938 159.6254577636719 L 0.5001220703125 159.6254577636719 L 0.5001220703125 -19.84098625183105 C 5.485367298126221 -18.45047378540039 39.41627883911133 -9.04541015625 92.74821472167969 4.335214138031006 C 126.5615539550781 12.81878566741943 161.4427337646484 21.21711921691895 196.4227447509766 29.2966423034668 C 240.1475067138672 39.39616775512695 284.1510620117188 49.02330780029297 327.2110595703125 57.91092681884766 C 436.8196411132813 80.53402709960938 541.0505981445313 98.55973815917969 637.0086669921875 111.4875946044922 C 693.986083984375 119.1635437011719 748.6425170898438 125.1042633056641 799.4596557617188 129.1445007324219 C 826.77490234375 131.316162109375 853.5198974609375 132.9806976318359 878.9515380859375 134.0916442871094 C 905.5403442382813 135.2533111572266 931.4327392578125 135.8423614501953 955.9091796875 135.8423614501953 C 992.7734375 135.8423614501953 1027.67041015625 134.5071258544922 1059.63037109375 131.8735504150391 C 1076.287231445313 130.5011596679688 1092.4931640625 128.7471160888672 1107.797973632813 126.6604537963867 C 1123.512451171875 124.5180740356445 1138.720581054688 121.9642639160156 1152.999389648438 119.0702133178711 C 1167.646118164063 116.1016387939453 1181.728637695313 112.6911697387695 1194.855834960938 108.9337844848633 C 1208.309692382813 105.0828323364258 1221.1396484375 100.758544921875 1232.989624023438 96.08116912841797 C 1245.124633789063 91.29116821289063 1256.574829101563 85.99568939208984 1267.021728515625 80.34140777587891 C 1277.712280273438 74.55545043945313 1287.654663085938 68.23045349121094 1296.572265625 61.54211807250977 C 1313.417724609375 48.90783309936523 1328.075561523438 36.78330993652344 1340.13818359375 25.50521469116211 C 1351.727294921875 14.66997623443604 1361.305541992188 4.255928039550781 1368.607055664063 -5.44788122177124 C 1372.140869140625 -10.1445484161377 1375.225830078125 -14.78573799133301 1377.7763671875 -19.24264335632324 C 1380.265380859375 -23.59264373779297 1382.320068359375 -27.89740562438965 1383.883178710938 -32.03764343261719 C 1385.405639648438 -36.07002258300781 1386.507690429688 -40.06811904907227 1387.15869140625 -43.92097473144531 C 1387.791015625 -47.66240692138672 1388.017456054688 -51.3812141418457 1387.83154296875 -54.97359466552734 C 1387.620361328125 -59.05645370483398 1386.86865234375 -63.1159782409668 1385.598022460938 -67.03955078125 C 1384.385864257813 -70.78145599365234 1382.66064453125 -74.52455139160156 1380.470092773438 -78.16455078125 C 1376.42919921875 -84.87931060791016 1370.769897460938 -91.41383361816406 1363.16845703125 -98.14144897460938 C 1356.83056640625 -103.7507400512695 1348.967529296875 -109.6185989379883 1339.1298828125 -116.0800247192383 C 1330.346313476563 -121.8493118286133 1320.760620117188 -127.5964508056641 1311.490356445313 -133.154541015625 C 1274.262451171875 -155.4750213623047 1235.766967773438 -178.5554962158203 1227.905395507813 -213.8352661132813 C 1226.812744140625 -218.7376403808594 1226.332275390625 -223.8428802490234 1226.47705078125 -229.0095520019531 C 1226.6279296875 -234.4019317626953 1227.46484375 -240.0373992919922 1228.964111328125 -245.7593078613281 C 1230.52294921875 -251.7076416015625 1232.846557617188 -257.9378662109375 1235.87109375 -264.2769165039063 C 1239.003173828125 -270.8421630859375 1242.983642578125 -277.7269287109375 1247.701782226563 -284.7405090332031 C 1252.478271484375 -291.8402709960938 1258.0830078125 -298.1036071777344 1264.36083984375 -303.356201171875 C 1270.463256835938 -308.46240234375 1277.369140625 -312.7538452148438 1284.886596679688 -316.1109619140625 C 1292.191284179688 -319.3733520507813 1300.2724609375 -321.8426513671875 1308.905883789063 -323.4505004882813 C 1317.285888671875 -325.0111999511719 1326.412963867188 -325.8026428222656 1336.033447265625 -325.8026428222656 C 1348.038940429688 -325.8026428222656 1361.185546875 -324.5724182128906 1375.108276367188 -322.145751953125 C 1388.432983398438 -319.8233642578125 1402.82177734375 -316.3438415527344 1417.875122070313 -311.8038330078125 C 1432.233032226563 -307.4733581542969 1447.573486328125 -302.0643005371094 1463.470581054688 -295.7264404296875 C 1478.575805664063 -289.7045593261719 1494.578247070313 -282.6866760253906 1511.033935546875 -274.8681335449219 C 1567.972778320313 -247.8145446777344 1632.835327148438 -210.0893096923828 1703.81982421875 -162.7404937744141 C 1731.709350585938 -144.1371612548828 1760.622314453125 -123.9857406616211 1789.75537109375 -102.8454971313477 C 1813.062255859375 -85.93264007568359 1836.561767578125 -68.35288238525391 1859.600830078125 -50.59431076049805 C 1897.066528320313 -21.7157039642334 1921.195556640625 -1.684819221496582 1923.500122070313 0.2340990900993347 L 1923.500366210938 159.6254577636719 Z" stroke="none"/>
      <path d="M 1923.000366210938 159.1254577636719 L 1923.000122070313 0.4685687720775604 C 1919.830444335938 -2.166966438293457 1895.952026367188 -21.94333267211914 1859.302734375 -50.1928825378418 C 1836.267944335938 -67.9481201171875 1812.772705078125 -85.5250244140625 1789.469604492188 -102.4347839355469 C 1760.341796875 -123.5714492797852 1731.434204101563 -143.7195434570313 1703.549926757813 -162.3193054199219 C 1632.584228515625 -209.6562194824219 1567.741577148438 -247.3704986572266 1510.8232421875 -274.41455078125 C 1494.376831054688 -282.2288208007813 1478.383666992188 -289.2426452636719 1463.288208007813 -295.2607421875 C 1447.403930664063 -301.5935974121094 1432.076782226563 -306.9981079101563 1417.732543945313 -311.3243103027344 C 1402.697998046875 -315.8588256835938 1388.328491210938 -319.3338317871094 1375.023193359375 -321.6528930664063 C 1361.128173828125 -324.0747985839844 1348.010375976563 -325.3026428222656 1336.033447265625 -325.3026428222656 C 1326.443481445313 -325.3026428222656 1317.347290039063 -324.5140686035156 1308.997314453125 -322.9590759277344 C 1300.402465820313 -321.3583679199219 1292.359130859375 -318.9007263183594 1285.09033203125 -315.654541015625 C 1277.615112304688 -312.3159790039063 1270.748657226563 -308.04931640625 1264.681518554688 -302.9728698730469 C 1258.43994140625 -297.7502746582031 1252.866821289063 -291.5221557617188 1248.116821289063 -284.4614562988281 C 1243.412231445313 -277.4681091308594 1239.443969726563 -270.6047973632813 1236.322265625 -264.0614624023438 C 1233.3115234375 -257.7509765625 1230.998657226563 -251.5505065917969 1229.447998046875 -245.6326446533203 C 1227.958251953125 -239.9474029541016 1227.126831054688 -234.3497924804688 1226.976806640625 -228.9954986572266 C 1226.833251953125 -223.8702697753906 1227.309936523438 -218.8059692382813 1228.393188476563 -213.9440765380859 C 1236.208251953125 -178.8738403320313 1274.610107421875 -155.8495483398438 1311.74755859375 -133.5833587646484 C 1321.02197265625 -128.0226440429688 1330.6123046875 -122.2728805541992 1339.404418945313 -116.4981231689453 C 1349.26220703125 -110.0233612060547 1357.143920898438 -104.1412124633789 1363.499877929688 -98.51597595214844 C 1371.139892578125 -91.75407409667969 1376.8310546875 -85.18144989013672 1380.8984375 -78.42240142822266 C 1383.108642578125 -74.74954986572266 1384.849853515625 -70.97168731689453 1386.07373046875 -67.19359588623047 C 1387.358032226563 -63.22859573364258 1388.117309570313 -59.1259765625 1388.330810546875 -54.99930953979492 C 1388.518676757813 -51.37049865722656 1388.290161132813 -47.61526107788086 1387.651733398438 -43.83764266967773 C 1386.995361328125 -39.95312118530273 1385.884643554688 -35.9235954284668 1384.35107421875 -31.86097717285156 C 1382.778686523438 -27.69621467590332 1380.712524414063 -23.36716651916504 1378.210327148438 -18.99431037902832 C 1375.6494140625 -14.51930999755859 1372.552734375 -9.860500335693359 1369.006591796875 -5.147167205810547 C 1361.687744140625 4.579737663269043 1352.08984375 15.01545238494873 1340.479858398438 25.87045288085938 C 1328.403930664063 37.16092681884766 1313.732299804688 49.297119140625 1296.872314453125 61.94211959838867 C 1287.934936523438 68.64497375488281 1277.971801757813 74.98330688476563 1267.259887695313 80.78116607666016 C 1256.795166015625 86.44474029541016 1245.326782226563 91.7490234375 1233.173217773438 96.54616546630859 C 1221.308227539063 101.2294998168945 1208.462768554688 105.5590209960938 1194.993408203125 109.4144973754883 C 1181.853637695313 113.1754531860352 1167.758178710938 116.5890197753906 1153.0986328125 119.5602111816406 C 1138.809448242188 122.4564056396484 1123.5908203125 125.0118789672852 1107.865600585938 127.1559295654297 C 1092.552001953125 129.2437896728516 1076.337036132813 130.998779296875 1059.671508789063 132.3718872070313 C 1027.697998046875 135.0064086914063 992.7872924804688 136.3423614501953 955.9091796875 136.3423614501953 C 931.4255981445313 136.3423614501953 905.5260620117188 135.7530670166016 878.9298706054688 134.5911712646484 C 853.4922485351563 133.47998046875 826.7413330078125 131.8149719238281 799.4201049804688 129.6428375244141 C 748.5939331054688 125.6018829345703 693.928466796875 119.6604537963867 636.9420166015625 111.9830703735352 C 540.9724731445313 99.05378723144531 436.7298889160156 81.02592468261719 327.110107421875 58.40045166015625 C 284.0463256835938 49.51211929321289 240.0389251708984 39.88426208496094 196.3101196289063 29.78378486633301 C 161.3272705078125 21.70354652404785 126.4429779052734 13.30449962615967 92.62654876708984 4.820213794708252 C 41.16843032836914 -8.09022331237793 7.768198490142822 -17.30066871643066 1.0001220703125 -19.18281936645508 L 1.0001220703125 159.1254577636719 L 1923.000366210938 159.1254577636719 M 1924.000366210938 160.1254577636719 L 0.0001220703125 160.1254577636719 L 0.0001220703125 -20.50002479553223 C 0.0001220703125 -20.50002479553223 554.1957397460938 135.3423767089844 955.9091186523438 135.3423767089844 C 1099.713500976563 135.3423767089844 1223.95947265625 115.3767242431641 1296.272216796875 61.14212036132813 C 1570.588989257813 -144.5952606201172 1126.45703125 -105.4076461791992 1247.286987304688 -285.0195617675781 C 1266.852661132813 -314.1033935546875 1297.860961914063 -326.3027038574219 1336.033569335938 -326.3027038574219 C 1533.601684570313 -326.3027038574219 1924.000122070313 -2.418154690531082e-05 1924.000122070313 -2.418154690531082e-05 L 1924.000366210938 160.1254577636719 Z" stroke="none" fill="#707070"/>
    </g>
  </g>
</svg>
