<svg xmlns="http://www.w3.org/2000/svg" width="249.903" height="32.399" viewBox="0 0 249.903 32.399">
  <g id="LOGO" transform="translate(-27 -44.337)">
    <text id="Student-led_Project" data-name="Student-led Project" transform="translate(76.903 66.235)" font-size="16" font-family="Montserrat-SemiBold, Montserrat" font-weight="600" letter-spacing="0.131em"><tspan x="0" y="0">Student-led Project</tspan></text>
    <g id="LOGO-2" data-name="LOGO" transform="translate(27 44.337)">
      <path id="Path_1" data-name="Path 1" d="M3.353,0A3.52,3.52,0,0,1,6.707,3.665,3.52,3.52,0,0,1,3.353,7.33,3.52,3.52,0,0,1,0,3.665,3.52,3.52,0,0,1,3.353,0Z" transform="translate(0 19.938)" fill="#93a1ff"/>
      <path id="Path_2" data-name="Path 2" d="M3.957,0A4.153,4.153,0,0,1,7.914,4.325,4.153,4.153,0,0,1,3.957,8.65,4.153,4.153,0,0,1,0,4.325,4.153,4.153,0,0,1,3.957,0Z" transform="translate(22.938)" fill="#c66cfa"/>
      <line id="Line_1" data-name="Line 1" y1="8.943" x2="6.036" transform="translate(19.115 6.524)" fill="none" stroke="#707070" stroke-linecap="round" stroke-width="2"/>
      <line id="Line_3" data-name="Line 3" x1="5.902" y2="1.613" transform="translate(5.567 21.331)" fill="none" stroke="#707070" stroke-linecap="round" stroke-width="2"/>
      <ellipse id="Ellipse_1" data-name="Ellipse 1" cx="8.652" cy="9.456" rx="8.652" ry="9.456" transform="translate(8.182 9.236)" fill="#ffb95e"/>
      <line id="Line_2" data-name="Line 2" x1="3.756" y1="5.864" transform="translate(19.919 23.676)" fill="none" stroke="#707070" stroke-linecap="round" stroke-width="2"/>
      <path id="Path_3" data-name="Path 3" d="M2.146,0A2.253,2.253,0,0,1,4.292,2.346,2.253,2.253,0,0,1,2.146,4.691,2.253,2.253,0,0,1,0,2.346,2.253,2.253,0,0,1,2.146,0Z" transform="translate(21.999 27.708)" fill="#935cff"/>
    </g>
  </g>
</svg>
