<svg id="network" xmlns="http://www.w3.org/2000/svg" width="202.368" height="195.521" viewBox="0 0 202.368 195.521">
  <g id="Group_9" data-name="Group 9" transform="translate(177.36 39.349)">
    <g id="Group_8" data-name="Group 8">
      <path id="Path_22" data-name="Path 22" d="M456.238,102.4a12.5,12.5,0,1,0,12.5,12.5A12.517,12.517,0,0,0,456.238,102.4Zm0,18.756a6.252,6.252,0,1,1,6.252-6.252A6.258,6.258,0,0,1,456.238,121.156Z" transform="translate(-443.734 -102.4)" fill="#fff"/>
    </g>
  </g>
  <g id="Group_11" data-name="Group 11" transform="translate(0 148.631)">
    <g id="Group_10" data-name="Group 10">
      <path id="Path_23" data-name="Path 23" d="M12.5,384a12.5,12.5,0,1,0,12.5,12.5A12.517,12.517,0,0,0,12.5,384Zm0,18.756a6.252,6.252,0,1,1,6.252-6.252A6.258,6.258,0,0,1,12.5,402.756Z" transform="translate(0 -384)" fill="#fff"/>
    </g>
  </g>
  <g id="Group_13" data-name="Group 13" transform="translate(152.35 28.131)">
    <g id="Group_12" data-name="Group 12">
      <path id="Path_24" data-name="Path 24" d="M406.915,90.124,379.947,77.1a3.126,3.126,0,1,0-2.716,5.63L404.2,95.754a3.126,3.126,0,0,0,2.716-5.63Z" transform="translate(-375.463 -76.792)" fill="#fff"/>
    </g>
  </g>
  <g id="Group_15" data-name="Group 15" transform="translate(139.842 170.513)">
    <g id="Group_14" data-name="Group 14">
      <path id="Path_25" data-name="Path 25" d="M362.371,443.733a12.5,12.5,0,1,0,12.5,12.5A12.517,12.517,0,0,0,362.371,443.733Zm0,18.756a6.252,6.252,0,1,1,6.252-6.252A6.258,6.258,0,0,1,362.371,462.489Z" transform="translate(-349.867 -443.733)" fill="#fff"/>
    </g>
  </g>
  <g id="Group_17" data-name="Group 17" transform="translate(113.054 161.131)">
    <g id="Group_16" data-name="Group 16">
      <path id="Path_26" data-name="Path 26" d="M313.048,431.457l-26.968-13.02a3.126,3.126,0,0,0-2.716,5.63l26.968,13.02a3.126,3.126,0,1,0,2.716-5.63Z" transform="translate(-281.596 -418.124)" fill="#fff"/>
    </g>
  </g>
  <g id="Group_19" data-name="Group 19" transform="translate(88.68 88.536)">
    <g id="Group_18" data-name="Group 18">
      <path id="Path_27" data-name="Path 27" d="M234.371,230.4a12.5,12.5,0,1,0,12.5,12.5A12.517,12.517,0,0,0,234.371,230.4Zm0,18.756a6.252,6.252,0,1,1,6.252-6.252A6.258,6.258,0,0,1,234.371,249.156Z" transform="translate(-221.867 -230.4)" fill="#fff"/>
    </g>
  </g>
  <g id="Group_21" data-name="Group 21" transform="translate(68.284 75.365)">
    <g id="Group_20" data-name="Group 20">
      <path id="Path_28" data-name="Path 28" d="M196.43,213.076l-20.716-16.146a3.127,3.127,0,1,0-3.845,4.933l20.716,16.146a3.127,3.127,0,1,0,3.845-4.933Z" transform="translate(-170.664 -196.272)" fill="#fff"/>
    </g>
  </g>
  <g id="Group_23" data-name="Group 23" transform="translate(130.469 86.723)">
    <g id="Group_22" data-name="Group 22">
      <path id="Path_29" data-name="Path 29" d="M350.12,221.867a34.387,34.387,0,1,0,34.387,34.387A34.427,34.427,0,0,0,350.12,221.867Zm0,62.521a28.134,28.134,0,1,1,28.134-28.134A28.165,28.165,0,0,1,350.12,284.388Z" transform="translate(-315.733 -221.867)" fill="#fff"/>
    </g>
  </g>
  <g id="Group_25" data-name="Group 25" transform="translate(152.352 98.373)">
    <g id="Group_24" data-name="Group 24">
      <path id="Path_30" data-name="Path 30" d="M387.971,256a12.5,12.5,0,1,0,12.5,12.5A12.517,12.517,0,0,0,387.971,256Zm0,18.756a6.252,6.252,0,1,1,6.252-6.252A6.258,6.258,0,0,1,387.971,274.756Z" transform="translate(-375.467 -256)" fill="#fff"/>
    </g>
  </g>
  <g id="Group_27" data-name="Group 27" transform="translate(146.1 131.164)">
    <g id="Group_26" data-name="Group 26">
      <path id="Path_31" data-name="Path 31" d="M386.225,341.333H368.088a9.571,9.571,0,0,0-9.688,9.425V359a3.128,3.128,0,0,0,1.56,2.707,34.212,34.212,0,0,0,34.393,0,3.123,3.123,0,0,0,1.56-2.7v-8.24A9.571,9.571,0,0,0,386.225,341.333Zm3.435,15.8a28.345,28.345,0,0,1-25.008,0v-6.374a3.318,3.318,0,0,1,3.435-3.176h18.137a3.318,3.318,0,0,1,3.435,3.176v6.374Z" transform="translate(-358.4 -341.333)" fill="#fff"/>
    </g>
  </g>
  <g id="Group_29" data-name="Group 29" transform="translate(45.704 126.748)">
    <g id="Group_28" data-name="Group 28">
      <path id="Path_32" data-name="Path 32" d="M145.32,324.267a34.386,34.386,0,1,0,34.387,34.386A34.427,34.427,0,0,0,145.32,324.267Zm0,62.521a28.134,28.134,0,1,1,28.134-28.134A28.165,28.165,0,0,1,145.32,386.788Z" transform="translate(-110.933 -324.267)" fill="#fff"/>
    </g>
  </g>
  <g id="Group_31" data-name="Group 31" transform="translate(68.216 137.722)">
    <g id="Group_30" data-name="Group 30">
      <path id="Path_33" data-name="Path 33" d="M183.171,358.4a12.5,12.5,0,1,0,12.5,12.5A12.517,12.517,0,0,0,183.171,358.4Zm0,18.756a6.252,6.252,0,1,1,6.252-6.252A6.258,6.258,0,0,1,183.171,377.156Z" transform="translate(-170.667 -358.4)" fill="#fff"/>
    </g>
  </g>
  <g id="Group_33" data-name="Group 33" transform="translate(61.821 170.513)">
    <g id="Group_32" data-name="Group 32">
      <path id="Path_34" data-name="Path 34" d="M181.425,443.733H163.288a9.571,9.571,0,0,0-9.688,9.425v8.24a3.128,3.128,0,0,0,1.56,2.707,34.212,34.212,0,0,0,34.393,0,3.122,3.122,0,0,0,1.56-2.7v-8.24A9.571,9.571,0,0,0,181.425,443.733Zm3.435,15.8a28.345,28.345,0,0,1-25.008,0v-6.374a3.318,3.318,0,0,1,3.435-3.176h18.137a3.318,3.318,0,0,1,3.435,3.176v6.374Z" transform="translate(-153.6 -443.733)" fill="#fff"/>
    </g>
  </g>
  <g id="Group_35" data-name="Group 35" transform="translate(0 43.361)">
    <g id="Group_34" data-name="Group 34">
      <path id="Path_35" data-name="Path 35" d="M34.387,110.933A34.387,34.387,0,1,0,68.773,145.32,34.427,34.427,0,0,0,34.387,110.933Zm0,62.521A28.134,28.134,0,1,1,62.521,145.32,28.165,28.165,0,0,1,34.387,173.454Z" transform="translate(0 -110.933)" fill="#fff"/>
    </g>
  </g>
  <g id="Group_37" data-name="Group 37" transform="translate(21.883 55.745)">
    <g id="Group_36" data-name="Group 36">
      <path id="Path_36" data-name="Path 36" d="M72.238,145.067a12.5,12.5,0,1,0,12.5,12.5A12.517,12.517,0,0,0,72.238,145.067Zm0,18.756a6.252,6.252,0,1,1,6.252-6.252A6.258,6.258,0,0,1,72.238,163.823Z" transform="translate(-59.734 -145.067)" fill="#fff"/>
    </g>
  </g>
  <g id="Group_39" data-name="Group 39" transform="translate(15.63 88.536)">
    <g id="Group_38" data-name="Group 38">
      <path id="Path_37" data-name="Path 37" d="M70.492,230.4H52.355a9.571,9.571,0,0,0-9.688,9.425v8.24a3.128,3.128,0,0,0,1.56,2.707,34.212,34.212,0,0,0,34.393,0,3.123,3.123,0,0,0,1.56-2.7v-8.24A9.571,9.571,0,0,0,70.492,230.4Zm3.435,15.8a28.345,28.345,0,0,1-25.008,0v-6.374a3.318,3.318,0,0,1,3.435-3.176H70.491a3.318,3.318,0,0,1,3.435,3.176V246.2Z" transform="translate(-42.667 -230.4)" fill="#fff"/>
    </g>
  </g>
  <g id="Group_41" data-name="Group 41" transform="translate(84.376)">
    <g id="Group_40" data-name="Group 40">
      <path id="Path_38" data-name="Path 38" d="M239.187,0a34.387,34.387,0,1,0,34.387,34.387A34.427,34.427,0,0,0,239.187,0Zm0,62.521a28.134,28.134,0,1,1,28.134-28.134A28.165,28.165,0,0,1,239.187,62.521Z" transform="translate(-204.8)" fill="#fff"/>
    </g>
  </g>
  <g id="Group_43" data-name="Group 43" transform="translate(105.734 12.504)">
    <g id="Group_42" data-name="Group 42">
      <path id="Path_39" data-name="Path 39" d="M277.038,34.133a12.5,12.5,0,1,0,12.5,12.5A12.517,12.517,0,0,0,277.038,34.133Zm0,18.756a6.252,6.252,0,1,1,6.252-6.252A6.258,6.258,0,0,1,277.038,52.889Z" transform="translate(-264.534 -34.133)" fill="#fff"/>
    </g>
  </g>
  <g id="Group_45" data-name="Group 45" transform="translate(99.601 45.907)">
    <g id="Group_44" data-name="Group 44">
      <path id="Path_40" data-name="Path 40" d="M275.292,119.467H257.155a9.571,9.571,0,0,0-9.688,9.425v8.24a3.128,3.128,0,0,0,1.56,2.707,34.212,34.212,0,0,0,34.393,0,3.123,3.123,0,0,0,1.56-2.7V128.9A9.571,9.571,0,0,0,275.292,119.467Zm3.435,15.8a28.345,28.345,0,0,1-25.008,0V128.9a3.318,3.318,0,0,1,3.435-3.176h18.137a3.318,3.318,0,0,1,3.435,3.176v6.374Z" transform="translate(-247.467 -119.467)" fill="#fff"/>
    </g>
  </g>
  <g id="Group_47" data-name="Group 47" transform="translate(58.313 32.789)">
    <g id="Group_46" data-name="Group 46">
      <path id="Path_41" data-name="Path 41" d="M172.837,86.424a3.131,3.131,0,0,0-4.408-.341l-21.664,18.538a3.125,3.125,0,1,0,4.064,4.748l21.663-18.538A3.125,3.125,0,0,0,172.837,86.424Z" transform="translate(-145.671 -85.333)" fill="#fff"/>
    </g>
  </g>
  <g id="Group_49" data-name="Group 49" transform="translate(136.431 59.138)">
    <g id="Group_48" data-name="Group 48">
      <path id="Path_42" data-name="Path 42" d="M365.716,179.868,346.96,154.86a3.125,3.125,0,0,0-5,3.748l18.756,25.008a3.125,3.125,0,0,0,5-3.748Z" transform="translate(-341.333 -153.61)" fill="#fff"/>
    </g>
  </g>
  <g id="Group_51" data-name="Group 51" transform="translate(109.778 130.653)">
    <g id="Group_50" data-name="Group 50">
      <path id="Path_43" data-name="Path 43" d="M297.922,341.79a3.127,3.127,0,0,0-4.377-.625L276.083,354.26a3.125,3.125,0,0,0,3.751,5L297.3,346.163A3.122,3.122,0,0,0,297.922,341.79Z" transform="translate(-274.833 -340.54)" fill="#fff"/>
    </g>
  </g>
  <g id="Group_53" data-name="Group 53" transform="translate(18.756 158.009)">
    <g id="Group_52" data-name="Group 52">
      <path id="Path_44" data-name="Path 44" d="M76.208,409.6H54.326a3.126,3.126,0,1,0,0,6.252H76.208a3.126,3.126,0,0,0,0-6.252Z" transform="translate(-51.2 -409.6)" fill="#fff"/>
    </g>
  </g>
  <g id="Group_55" data-name="Group 55" transform="translate(21.882)">
    <g id="Group_54" data-name="Group 54">
      <path id="Path_45" data-name="Path 45" d="M72.237,0a12.5,12.5,0,1,0,12.5,12.5A12.517,12.517,0,0,0,72.237,0Zm0,18.756A6.252,6.252,0,1,1,78.49,12.5,6.258,6.258,0,0,1,72.237,18.756Z" transform="translate(-59.733)" fill="#fff"/>
    </g>
  </g>
  <g id="Group_57" data-name="Group 57" transform="translate(31.261 18.756)">
    <g id="Group_56" data-name="Group 56">
      <path id="Path_46" data-name="Path 46" d="M88.46,51.2a3.125,3.125,0,0,0-3.126,3.126V76.208a3.126,3.126,0,1,0,6.252,0V54.326A3.125,3.125,0,0,0,88.46,51.2Z" transform="translate(-85.334 -51.2)" fill="#fff"/>
    </g>
  </g>
</svg>
