<svg xmlns="http://www.w3.org/2000/svg" width="187.563" height="187.563" viewBox="0 0 187.563 187.563">
  <g id="survey" transform="translate(-150 -1157.437)">
    <path id="Path_14" data-name="Path 14" d="M186.489,34.4,153.153,1.073A3.663,3.663,0,0,0,150.563,0H41.762a11,11,0,0,0-10.99,10.99v6.984A48.469,48.469,0,0,0,0,63.043a3.664,3.664,0,0,0,3.663,3.663H48.389a3.664,3.664,0,0,0,3.663-3.663V18.317a3.664,3.664,0,0,0-3.663-3.663A48.368,48.368,0,0,0,38.1,15.759V10.99a3.667,3.667,0,0,1,3.663-3.663H146.9V29.673a11,11,0,0,0,10.99,10.99h22.346v135.91a3.667,3.667,0,0,1-3.663,3.663H41.762a3.667,3.667,0,0,1-3.663-3.663V145.19a3.663,3.663,0,0,0-7.327,0v31.383a11,11,0,0,0,10.99,10.99H176.573a11,11,0,0,0,10.99-10.99V36.995A3.662,3.662,0,0,0,186.489,34.4ZM44.726,22.142V59.379H7.489A41.131,41.131,0,0,1,44.726,22.142ZM157.89,33.336a3.667,3.667,0,0,1-3.663-3.663V12.507l20.833,20.83Z" transform="translate(150 1157.437)" fill="#fff"/>
    <path id="Path_15" data-name="Path 15" d="M90.253,351.073a3.66,3.66,0,1,0,1.074,2.59A3.688,3.688,0,0,0,90.253,351.073Z" transform="translate(96.772 935.654)" fill="#fff"/>
    <path id="Path_16" data-name="Path 16" d="M84.208,75.819a3.664,3.664,0,0,0-3.663,3.663v41.062H39.482a3.664,3.664,0,0,0-3.663,3.663A48.389,48.389,0,1,0,84.208,75.819Zm3.663,7.489a40.877,40.877,0,0,1,22.653,9.4L87.871,115.364Zm-3.663,81.963a41.118,41.118,0,0,1-40.9-37.4h40.9A3.652,3.652,0,0,0,86.8,126.8h0l28.907-28.907a41.042,41.042,0,0,1-31.5,67.379Z" transform="translate(127.303 1109.393)" fill="#fff"/>
    <path id="Path_17" data-name="Path 17" d="M258.005,315.605a10.989,10.989,0,0,0-10.121,15.273l-21.106,21.106a10.97,10.97,0,0,0-9.49-.049l-14.015-14.015a10.99,10.99,0,1,0-20.212.6L169.62,351.964a10.991,10.991,0,1,0,5.187,5.175l13.368-13.368a10.954,10.954,0,0,0,10.292-.3l13.62,13.62a10.991,10.991,0,1,0,19.841.105l20.909-20.908a10.989,10.989,0,1,0,5.17-20.685Zm-93.111,49.943a3.663,3.663,0,1,1,2.534-6.3c.015.015.027.032.042.047s.037.032.055.049a3.659,3.659,0,0,1-2.631,6.206Zm28.145-27.964a3.663,3.663,0,1,1,3.663-3.663A3.667,3.667,0,0,1,193.039,337.585Zm28.942,27.948a3.663,3.663,0,1,1,3.663-3.663A3.667,3.667,0,0,1,221.981,365.533ZM258,330.258a3.663,3.663,0,1,1,3.663-3.663A3.667,3.667,0,0,1,258,330.258Z" transform="translate(52.476 957.449)" fill="#fff"/>
    <path id="Path_18" data-name="Path 18" d="M348.309,235H328.974a3.663,3.663,0,0,0,0,7.327h19.335a3.663,3.663,0,0,0,0-7.327Z" transform="translate(-56.139 1008.526)" fill="#fff"/>
    <path id="Path_19" data-name="Path 19" d="M429.873,236.073a3.66,3.66,0,1,0,1.074,2.59A3.689,3.689,0,0,0,429.873,236.073Z" transform="translate(-118.434 1008.526)" fill="#fff"/>
    <path id="Path_20" data-name="Path 20" d="M373.723,139H328.974a3.663,3.663,0,0,0,0,7.327h44.749a3.663,3.663,0,0,0,0-7.327Z" transform="translate(-56.139 1069.358)" fill="#fff"/>
    <path id="Path_21" data-name="Path 21" d="M373.723,187H328.974a3.663,3.663,0,0,0,0,7.327h44.749a3.663,3.663,0,0,0,0-7.327Z" transform="translate(-56.139 1038.942)" fill="#fff"/>
  </g>
</svg>
