<svg xmlns="http://www.w3.org/2000/svg" width="1933.112" height="1163.186" viewBox="0 0 1933.112 1163.186">
  <g id="upper_background" data-name="upper background" transform="translate(0 -177)">
    <path id="Path_52" data-name="Path 52" d="M0,0H1933.112V1014.544H0Z" transform="translate(0 177)" fill="#434779"/>
    <path id="Path_10" data-name="Path 10" d="M2306.632,401H1544.607s394.718,86.458,327.1,212.549-703.548,184.567-232.08,294.211S2306.632,401,2306.632,401Z" transform="translate(-766 -224)" fill="#c66cfa"/>
    <path id="Path_11" data-name="Path 11" d="M1056.033,981.64l560.159,1.087S1416.525,908.9,1454.9,793.778c60.553-118.943,494.156-15.138,303.192-245.246C1560.868,342.874,1056.033,981.64,1056.033,981.64Z" transform="translate(42)" fill="#93a1ff"/>
    <path id="Path_13" data-name="Path 13" d="M2419.185,1205.245l-486.01-1.992-68.72,1.992s-47.244,55.311-124.557,131.218-106.833,227.723-106.833,227.723H2688.742s2.812-232.722,0-326.9C2528.493,1238.688,2419.043,1205.151,2419.185,1205.245Z" transform="translate(-766 -224)" fill="#93a1ff"/>
    <path id="Path_9" data-name="Path 9" d="M766,710.436c222.024-180.974,449.326-102.369,508.857,47.528s-400.484-27.42-272.4,197.426,247.473,224.827,288.409,250.836S766,1204,766,1204Z" transform="translate(-766 -219)" fill="#ffb95e"/>
  </g>
</svg>
